<svg width="16" height="16" viewBox="0 0 16 16" fill="currentColor" xmlns="http://www.w3.org/2000/svg">
	<path fill-rule="evenodd" clip-rule="evenodd" d="M3.01313 0.5H7.63325L9.6521 3.99261H13.6901L16 8.00038L13.6896 11.9973H9.65251L7.63367 15.5H3.01271L0.702759 11.4922L2.7216 7.99964L0.702759 4.49694L3.01313 0.5ZM7.92477 7.99964L9.65209 10.9879H13.1072L14.8345 7.99965L13.1068 5.00203H9.6525L7.92477 7.99964ZM7.05081 1.50942L8.77806 4.49757L7.05028 7.49528H3.59599L1.86826 4.49767L3.59557 1.50942H7.05081ZM3.59557 8.50472H7.05068L8.77806 11.4931L7.05039 14.4906H3.59599L1.86826 11.493L3.59557 8.50472ZM3.95668 9.38406L2.81604 11.3726L3.69164 11.8749L4.83228 9.8863L3.95668 9.38406ZM3.95721 2.39793L2.81657 4.37639L3.69106 4.88056L4.83171 2.9021L3.95721 2.39793ZM10.0135 5.89053L8.87286 7.86899L9.74736 8.37317L10.888 6.3947L10.0135 5.89053Z"/>
</svg>
