<svg width="16" height="16" viewBox="0 0 16 16" fill="currentColor" xmlns="http://www.w3.org/2000/svg">
    <path fill-rule="evenodd" clip-rule="evenodd" d="M3.01301 0.5H7.63313L9.65198 3.99261H13.6899L15.9999 8.00038L13.6895 11.9973H12V10.9879H13.1071L14.8344 7.99965L13.1067 5.00203H9.65238L7.92465 7.99964L9.08093 10H7.91489L7.05056 8.50472H3.59545L2.73113 10H1.5652L2.72148 7.99964L0.702637 4.49694L3.01301 0.5ZM4.83216 9.8863L4.76695 10H3.60325L3.95656 9.38406L4.83216 9.8863ZM7.05069 1.50942L8.77794 4.49757L7.05015 7.49528H3.59587L1.86814 4.49767L3.59545 1.50942H7.05069ZM3.95709 2.39793L2.81644 4.37639L3.69094 4.88056L4.83158 2.9021L3.95709 2.39793ZM10.0134 5.89053L8.87274 7.86899L9.74723 8.37317L10.8879 6.3947L10.0134 5.89053ZM1 11C0.447715 11 0 11.4477 0 12V15C0 15.5523 0.447715 16 1 16H2.5H3V15H2.5H1V12H2.5H3V11H2.5H1ZM5 11C4.44772 11 4 11.4477 4 12V13C4 13.5523 4.44772 14 5 14H6V15H4.5H4V16H4.5H6C6.55228 16 7 15.5523 7 15V14C7 13.4477 6.55228 13 6 13H5V12H6.5H7V11H6.5H5ZM9 11V11.5V13.396L9.5 14.546L10 13.396V11.5V11H11V11.5V13.5V13.604L10.9585 13.6994L9.95854 15.9994H9.04146L8.04146 13.6994L8 13.604V13.5V11.5V11H9Z"/>
</svg>