<svg width="16" height="16" viewBox="0 0 16 16"  fill="currentColor" xmlns="http://www.w3.org/2000/svg">
	<path fill-rule="evenodd" clip-rule="evenodd" d="M14 8C14 4.68629 11.3137 2 8 2V1C11.866 1 15 4.13401 15 8C15 11.866 11.866 15 8 15C4.13401 15 1 11.866 1 8C1 7.28607 1.10704 6.59621 1.30629 5.94611L2.2624 6.23915C2.09192 6.79536 2 7.38649 2 8C2 11.3137 4.68629 14 8 14C11.3137 14 14 11.3137 14 8ZM5.23109 2.6756C5.07303 2.75799 4.91906 2.84722 4.76959 2.94291L4.23041 2.10073C4.40476 1.9891 4.58441 1.88498 4.76891 1.78882L5.23109 2.6756ZM3.96215 3.56195C3.77655 3.73092 3.60159 3.91136 3.43839 4.10216L2.67846 3.45215C2.8687 3.22975 3.07262 3.01943 3.28895 2.82249L3.96215 3.56195ZM2.98796 4.70028C2.7599 5.04594 2.56671 5.41645 2.41334 5.8068L1.48261 5.4411C1.66175 4.98518 1.88726 4.55273 2.15328 4.14955L2.98796 4.70028Z"/>
</svg>